<svg width="32" height="30" viewBox="0 0 32 30" fill="none" xmlns="http://www.w3.org/2000/svg">
<path d="M17.6667 29V26.5C17.6667 22.3579 14.4687 19 10.5238 19H8.14286C4.19797 19 1 22.3579 1 26.5V29M21.4762 19H23.8571C27.802 19 31 22.3579 31 26.5V29M21 1.34141C21.5213 1.12031 22.0823 1 22.6667 1C25.4281 1 27.6667 3.68629 27.6667 7C27.6667 10.3137 25.4281 13 22.6667 13C22.0823 13 21.5213 12.8797 21 12.6586M14.3333 7C14.3333 10.3137 12.0948 13 9.33333 13C6.5719 13 4.33333 10.3137 4.33333 7C4.33333 3.68629 6.5719 1 9.33333 1C12.0948 1 14.3333 3.68629 14.3333 7Z" stroke="#FF7F00" stroke-width="2" stroke-linecap="round" stroke-linejoin="round"/>
</svg>
