<svg width="31" height="31" viewBox="0 0 31 31" fill="none" xmlns="http://www.w3.org/2000/svg">
<path fill-rule="evenodd" clip-rule="evenodd" d="M21.2176 4.28165C19.418 -1.42722 11.582 -1.42722 9.78236 4.28165C9.25323 5.96013 7.73569 7.09654 6.02341 7.09654C0.199556 7.09654 -2.22188 14.7778 2.48971 18.306C3.87498 19.3434 4.45463 21.1822 3.9255 22.8606C2.12583 28.5695 8.46524 33.3168 13.1768 29.7885C14.5621 28.7511 16.4379 28.7511 17.8232 29.7885C22.5348 33.3168 28.8742 28.5695 27.0745 22.8606C26.5454 21.1822 27.125 19.3434 28.5103 18.306C33.2219 14.7778 30.8004 7.09654 24.9766 7.09654C23.2643 7.09654 21.7468 5.96013 21.2176 4.28165ZM11.741 4.93761C12.9242 1.18442 18.0758 1.18442 19.259 4.93761C20.0638 7.49069 22.3721 9.21926 24.9766 9.21926C28.8054 9.21926 30.3973 14.2691 27.2998 16.5887C25.1927 18.1666 24.311 20.9635 25.1158 23.5166C26.299 27.2698 22.1312 30.3908 19.0337 28.0712C16.9266 26.4933 14.0734 26.4933 11.9663 28.0712C8.86875 30.3908 4.70103 27.2698 5.88419 23.5166C6.68903 20.9635 5.80734 18.1666 3.70025 16.5887C0.602699 14.2691 2.19463 9.21926 6.02341 9.21926C8.62791 9.21926 10.9362 7.49069 11.741 4.93761Z" fill="#FF7F00"/>
</svg>
