<svg width="45" height="41" viewBox="0 0 45 41" fill="none" xmlns="http://www.w3.org/2000/svg">
<path d="M43.1833 4.57307C45.5904 3.53351 45.6077 1.8405 43.222 0.791626C40.8363 -0.257251 36.951 -0.264804 34.544 0.774755L19.8598 7.11652C14.3291 9.50502 9.80887 11.4571 6.60319 13.1965C3.26968 15.0052 0.856595 16.8411 0.211983 19.0448C-0.0706612 20.0111 -0.0706607 20.9889 0.211982 21.9552C0.856595 24.1589 3.26968 25.9948 6.60319 27.8035C9.80886 29.5429 14.329 31.495 19.8597 33.8834L34.544 40.2253C36.951 41.2648 40.8363 41.2573 43.222 40.2084C45.6077 39.1595 45.5904 37.4665 43.1833 36.4269L28.759 30.1974C22.905 27.6692 18.8893 25.9292 16.1721 24.4549C13.5327 23.0227 12.6272 22.1029 12.3862 21.279C12.2349 20.7617 12.2349 20.2383 12.3862 19.721C12.6272 18.8971 13.5327 17.9773 16.1721 16.5451C18.8893 15.0708 22.905 13.3308 28.759 10.8026L43.1833 4.57307Z" fill="#141414"/>
</svg>
