<svg width="47" height="40" viewBox="0 0 47 40" fill="none" xmlns="http://www.w3.org/2000/svg">
<path d="M33.8708 6.25412C33.0243 5.9523 32.0774 6.35149 31.7557 7.14575C31.4341 7.94 31.8595 8.82855 32.7059 9.13037C33.4945 9.41155 34.3176 9.88793 35.1445 10.6573C36.1977 11.637 36.8642 12.7109 37.2358 13.8415C37.5026 14.6534 38.4204 15.1086 39.2857 14.8583C40.1509 14.6079 40.6361 13.7467 40.3693 12.9348C39.8367 11.3142 38.8837 9.80301 37.4533 8.47223C36.3248 7.42237 35.1185 6.69903 33.8708 6.25412Z" fill="#FF7F00"/>
<path fill-rule="evenodd" clip-rule="evenodd" d="M20.8791 2.58989C18.9374 1.43413 16.2789 0.232551 13.3269 0.0297691C10.2928 -0.178649 7.06203 0.680478 4.15987 3.45758C0.733694 6.73613 -0.341236 10.7834 0.0904068 14.8773C0.517075 18.924 2.40874 23.0377 4.9317 26.6828C7.4614 30.3376 10.6928 33.619 13.9347 36.0016C17.1052 38.3319 20.5549 40 23.5 40C26.445 40 29.8947 38.3319 33.0653 36.0016C36.3071 33.619 39.5386 30.3376 42.0683 26.6828C44.5912 23.0377 46.4829 18.924 46.9096 14.8773C47.3412 10.7834 46.2663 6.73613 42.8401 3.45759C39.938 0.680508 36.7072 -0.178613 33.6732 0.0298007C30.7212 0.232579 28.0627 1.43415 26.121 2.58989C24.5898 3.50132 22.4103 3.50132 20.8791 2.58989ZM6.50115 5.61188C8.70174 3.50612 10.9767 2.95349 13.0875 3.09849C15.2802 3.24911 17.4055 4.16611 19.1226 5.18815C21.726 6.7378 25.2741 6.7378 27.8775 5.18816C29.5946 4.16613 31.7198 3.24914 33.9126 3.09852C36.0233 2.95353 38.2983 3.50615 40.4988 5.61189C43.1292 8.12889 44.0001 11.2203 43.6464 14.5743C43.2878 17.9756 41.6631 21.6191 39.3183 25.0068C36.9802 28.3848 33.9924 31.4118 31.0433 33.5793C28.0229 35.7992 25.3098 36.9231 23.5 36.9231C21.6901 36.9231 18.9771 35.7992 15.9567 33.5793C13.0076 31.4118 10.0198 28.3848 7.6817 25.0068C5.33689 21.6191 3.7122 17.9756 3.35358 14.5743C2.99995 11.2203 3.87081 8.12889 6.50115 5.61188Z" fill="#FF7F00"/>
</svg>
