<svg width="8" height="16" viewBox="0 0 8 16" fill="none" xmlns="http://www.w3.org/2000/svg">
<path d="M0.642348 14.2144C0.23303 14.6201 0.230083 15.2808 0.635764 15.6901C1.04145 16.0994 1.70213 16.1024 2.11145 15.6967L4.60847 13.2218C5.54895 12.2897 6.31761 11.5279 6.86273 10.8492C7.42959 10.1433 7.83993 9.42688 7.94955 8.5669C7.99761 8.18982 7.99761 7.80823 7.94955 7.43115C7.83993 6.57116 7.42959 5.85472 6.86273 5.14888C6.31762 4.4701 5.54897 3.70831 4.60849 2.77622L2.11145 0.301366C1.70213 -0.104315 1.04145 -0.101368 0.635765 0.30795C0.230083 0.717268 0.233031 1.37795 0.642348 1.78364L3.09517 4.21467C4.09064 5.2013 4.7735 5.88031 5.23555 6.45566C5.68438 7.01454 5.83836 7.37352 5.87934 7.69502C5.90507 7.89689 5.90507 8.10115 5.87934 8.30303C5.83836 8.62453 5.68438 8.98351 5.23555 9.54239C4.7735 10.1177 4.09064 10.7967 3.09518 11.7834L0.642348 14.2144Z" fill="#141414"/>
</svg>
