<svg width="47" height="45" viewBox="0 0 47 45" fill="none" xmlns="http://www.w3.org/2000/svg">
<path fill-rule="evenodd" clip-rule="evenodd" d="M7.63758 22.5C7.63758 19.2937 10.3597 16.6875 13.7084 16.6875H21.5417V13.125H13.7084C8.30341 13.125 3.91675 17.325 3.91675 22.5C3.91675 27.675 8.30341 31.875 13.7084 31.875H21.5417V28.3125H13.7084C10.3597 28.3125 7.63758 25.7063 7.63758 22.5ZM15.6667 24.375H31.3334V20.625H15.6667V24.375ZM33.2917 13.125H25.4584V16.6875H33.2917C36.6405 16.6875 39.3626 19.2937 39.3626 22.5C39.3626 25.7063 36.6405 28.3125 33.2917 28.3125H25.4584V31.875H33.2917C38.6967 31.875 43.0834 27.675 43.0834 22.5C43.0834 17.325 38.6967 13.125 33.2917 13.125Z" fill="black" fill-opacity="0.87"/>
</svg>
