<svg width="220" height="220" viewBox="0 0 220 220" fill="none" xmlns="http://www.w3.org/2000/svg">
<path fill-rule="evenodd" clip-rule="evenodd" d="M109 92.7799C96.7984 92.7799 86.907 102.492 86.907 114.473C86.907 126.453 96.7984 136.165 109 136.165C121.202 136.165 131.093 126.453 131.093 114.473C131.093 102.492 121.202 92.7799 109 92.7799ZM93.8837 114.473C93.8837 106.275 100.652 99.6303 109 99.6303C117.348 99.6303 124.116 106.275 124.116 114.473C124.116 122.67 117.348 129.315 109 129.315C100.652 129.315 93.8837 122.67 93.8837 114.473Z" fill="#D9D9D9"/>
<path fill-rule="evenodd" clip-rule="evenodd" d="M125.977 65.3379C116.295 56.8874 101.705 56.8874 92.0226 65.3379L91.0191 66.2137C88.2649 68.6176 84.708 69.9454 81.0229 69.9454C68.86 69.9454 59 79.6268 59 91.5694V114.679C59 123.067 58.9999 129.641 59.5755 134.857C60.1628 140.18 61.3829 144.493 64.1077 148.175C65.7573 150.405 67.7539 152.365 70.0243 153.985C73.7747 156.66 78.1672 157.858 83.5883 158.435C88.9004 159 95.5961 159 104.138 159H113.862C122.404 159 129.1 159 134.412 158.435C139.833 157.858 144.225 156.66 147.976 153.985C150.246 152.365 152.243 150.405 153.892 148.175C156.617 144.493 157.837 140.18 158.425 134.857C159 129.641 159 123.067 159 114.68V91.5694C159 79.6268 149.14 69.9454 136.977 69.9454C133.292 69.9454 129.735 68.6176 126.981 66.2137L125.977 65.3379ZM96.6577 70.4579C103.696 64.3145 114.304 64.3145 121.342 70.4579L122.346 71.3337C126.377 74.8522 131.583 76.7957 136.977 76.7957C145.287 76.7957 152.023 83.4101 152.023 91.5694V114.473C152.023 123.111 152.018 129.315 151.488 134.119C150.965 138.859 149.965 141.829 148.248 144.149C147.029 145.797 145.553 147.246 143.875 148.443C141.512 150.128 138.488 151.111 133.66 151.624C128.767 152.145 122.449 152.15 113.651 152.15H104.349C95.5508 152.15 89.2325 152.145 84.3397 151.624C79.5122 151.111 76.488 150.128 74.1252 148.443C72.447 147.246 70.9712 145.797 69.752 144.149C68.0353 141.829 67.0347 138.859 66.5116 134.119C65.9815 129.315 65.9767 123.111 65.9767 114.473V91.5694C65.9767 83.4101 72.7132 76.7957 81.0229 76.7957C86.4167 76.7957 91.6229 74.8522 95.6542 71.3337L96.6577 70.4579Z" fill="#D9D9D9"/>
<path d="M132.256 91.6384C132.256 94.1606 134.338 96.2053 136.907 96.2053C139.476 96.2053 141.558 94.1606 141.558 91.6384C141.558 89.1162 139.476 87.0715 136.907 87.0715C134.338 87.0715 132.256 89.1162 132.256 91.6384Z" fill="#D9D9D9"/>
<circle cx="110" cy="110" r="109" stroke="#D9D9D9" stroke-width="2"/>
</svg>
