<?xml version="1.0" encoding="utf-8"?>
<svg id="master-artboard" viewBox="0 0 986.4865112304688 980" version="1.1" xmlns="http://www.w3.org/2000/svg" x="0px" y="0px" style="enable-background:new 0 0 336 235.2;" width="986.4865112304688px" height="980px"><rect id="ee-background" x="0" y="0" width="986.4865112304688" height="980" style="fill: white; fill-opacity: 0; pointer-events: none;"/><g transform="matrix(31.612903594970703, 0, 0, 31.612903594970703, 3.243255615234375, 1.4210854715202004e-14)"><path fill-rule="evenodd" clip-rule="evenodd" d="M13.4334 0C6.01432 0 0 6.0143 0 13.4333C0 20.8523 6.01432 26.8666 13.4334 26.8666C20.8524 26.8666 26.8667 20.8523 26.8667 13.4333C26.8667 6.0143 20.8524 0 13.4334 0ZM2.06667 13.4333C2.06667 7.15568 7.15571 2.06666 13.4334 2.06666C19.711 2.06666 24.8 7.15568 24.8 13.4333C24.8 19.7109 19.711 24.8 13.4334 24.8C7.15571 24.8 2.06667 19.7109 2.06667 13.4333Z" fill="#7A7171" style="fill: rgb(255, 255, 255);"/><path d="M25.1864 23.725C24.7828 23.3214 24.1286 23.3214 23.725 23.725C23.3215 24.1285 23.3215 24.7828 23.725 25.1863L29.236 30.6973C29.6395 31.1009 30.2938 31.1009 30.6973 30.6973C31.1009 30.2938 31.1009 29.6395 30.6973 29.236L25.1864 23.725Z" fill="#7A7171" style="fill: rgb(255, 255, 255);"/></g></svg>