<svg width="50" height="52" viewBox="0 0 72 86" fill="none" xmlns="http://www.w3.org/2000/svg">
<path d="M22.6957 2H70V84.6487H2V20.6626L22.6957 2Z" stroke="black" stroke-width="2.66609" stroke-miterlimit="10"/>
<path d="M2 20.6626H22.6957V2" stroke="black" stroke-width="2.66609" stroke-miterlimit="10"/>
<path d="M26.6035 57.0648L33.0488 61.813C33.8804 62.6043 35.7517 63 36.9991 63H44.8998C47.3948 63 50.0976 61.2194 50.7213 58.8454L55.7112 44.4031C56.7508 41.6334 54.8796 39.2592 51.7609 39.2592H43.4444C42.1969 39.2592 41.1574 38.27 41.3653 36.8852L42.4049 30.5543C42.8207 28.7737 41.5732 26.7954 39.702 26.2018C38.0387 25.6083 35.9596 26.3997 35.1279 27.5867L26.6035 39.6549" stroke="black" stroke-width="2.5" stroke-miterlimit="10"/>
<path d="M16 57.0649V37.6766C16 34.9069 17.2475 33.9177 20.1582 33.9177H22.2374C25.1481 33.9177 26.3956 34.9069 26.3956 37.6766V57.0649C26.3956 59.8346 25.1481 60.8238 22.2374 60.8238H20.1582C17.2475 60.8238 16 59.8346 16 57.0649Z" stroke="black" stroke-width="2.5" stroke-linecap="round" stroke-linejoin="round"/>
</svg>
